<svg xmlns="http://www.w3.org/2000/svg" viewBox="0 0 256 257">
  <path fill="#41D1FF" d="M255.153 37.938L134.897 252.312c-2.444 4.387-8.675 4.387-11.119 0L.847 37.938c-2.647-4.75 1.277-10.576 6.56-9.656l120.96 21.162a6.53 6.53 0 001.54 0l118.69-21.158c5.28-.94 9.218 4.902 6.556 9.652z"/>
  <path fill="#BD34FE" d="M185.432.063L96.44 17.283a3.27 3.27 0 00-2.622 2.746l-5.56 94.095a3.27 3.27 0 003.84 3.393l24.76-4.76c2.317-.445 4.42 1.5 3.89 3.8l-7.36 31.79c-.53 2.29 1.54 4.23 3.77 3.65l15.29-3.93c2.25-.58 4.31 1.44 3.77 3.71l-11.7 49.62c-.73 3.1 3.34 4.78 4.93 2.04l1.07-1.85 72.46-144.61c1.22-2.44-.86-5.23-3.57-4.77l-25.48 4.36c-2.4.41-4.43-1.87-3.69-4.23l16.64-53.56c.73-2.35-1.47-4.6-3.82-4.14z"/>
</svg>